<svg xmlns="http://www.w3.org/2000/svg" xmlns:xlink="http://www.w3.org/1999/xlink" width="430" zoomAndPan="magnify" viewBox="0 0 322.5 231" height="308" preserveAspectRatio="xMidYMid meet" version="1.0"><defs><g/></defs><g fill="#ffffff" fill-opacity="1"><g transform="translate(75.736237, 115.157322)"><g><path d="M 25.734375 -22.40625 L 25.734375 8.078125 L 19.234375 8.078125 L 19.234375 -2.375 C 17.628906 -0.570312 15.394531 0.328125 12.53125 0.328125 C 10.425781 0.328125 8.519531 -0.140625 6.8125 -1.078125 C 5.101562 -2.023438 3.757812 -3.375 2.78125 -5.125 C 1.8125 -6.875 1.328125 -8.898438 1.328125 -11.203125 C 1.328125 -13.503906 1.8125 -15.53125 2.78125 -17.28125 C 3.757812 -19.03125 5.101562 -20.375 6.8125 -21.3125 C 8.519531 -22.257812 10.425781 -22.734375 12.53125 -22.734375 C 15.582031 -22.734375 17.914062 -21.765625 19.53125 -19.828125 L 19.53125 -22.40625 Z M 13.65625 -5 C 15.289062 -5 16.648438 -5.5625 17.734375 -6.6875 C 18.816406 -7.8125 19.359375 -9.316406 19.359375 -11.203125 C 19.359375 -13.085938 18.816406 -14.59375 17.734375 -15.71875 C 16.648438 -16.84375 15.289062 -17.40625 13.65625 -17.40625 C 11.988281 -17.40625 10.613281 -16.84375 9.53125 -15.71875 C 8.445312 -14.59375 7.90625 -13.085938 7.90625 -11.203125 C 7.90625 -9.316406 8.445312 -7.8125 9.53125 -6.6875 C 10.613281 -5.5625 11.988281 -5 13.65625 -5 Z M 13.65625 -5 "/></g></g></g><g fill="#ffffff" fill-opacity="1"><g transform="translate(102.049934, 115.157322)"><g><path d="M 25.5625 -22.40625 L 25.5625 0 L 19.40625 0 L 19.40625 -2.671875 C 18.539062 -1.691406 17.507812 -0.945312 16.3125 -0.4375 C 15.125 0.0703125 13.835938 0.328125 12.453125 0.328125 C 9.503906 0.328125 7.171875 -0.515625 5.453125 -2.203125 C 3.734375 -3.898438 2.875 -6.414062 2.875 -9.75 L 2.875 -22.40625 L 9.375 -22.40625 L 9.375 -10.703125 C 9.375 -7.085938 10.882812 -5.28125 13.90625 -5.28125 C 15.457031 -5.28125 16.707031 -5.785156 17.65625 -6.796875 C 18.601562 -7.816406 19.078125 -9.328125 19.078125 -11.328125 L 19.078125 -22.40625 Z M 25.5625 -22.40625 "/></g></g></g><g fill="#ffffff" fill-opacity="1"><g transform="translate(128.23872, 115.157322)"><g><path d="M 24.9375 -11.125 C 24.9375 -11.039062 24.894531 -10.457031 24.8125 -9.375 L 7.875 -9.375 C 8.175781 -7.976562 8.894531 -6.878906 10.03125 -6.078125 C 11.175781 -5.273438 12.59375 -4.875 14.28125 -4.875 C 15.445312 -4.875 16.476562 -5.046875 17.375 -5.390625 C 18.28125 -5.734375 19.125 -6.28125 19.90625 -7.03125 L 23.359375 -3.296875 C 21.253906 -0.878906 18.171875 0.328125 14.109375 0.328125 C 11.585938 0.328125 9.351562 -0.160156 7.40625 -1.140625 C 5.46875 -2.128906 3.96875 -3.5 2.90625 -5.25 C 1.851562 -7 1.328125 -8.984375 1.328125 -11.203125 C 1.328125 -13.390625 1.847656 -15.363281 2.890625 -17.125 C 3.929688 -18.894531 5.359375 -20.269531 7.171875 -21.25 C 8.992188 -22.238281 11.03125 -22.734375 13.28125 -22.734375 C 15.476562 -22.734375 17.460938 -22.257812 19.234375 -21.3125 C 21.015625 -20.375 22.410156 -19.019531 23.421875 -17.25 C 24.429688 -15.488281 24.9375 -13.445312 24.9375 -11.125 Z M 13.328125 -17.828125 C 11.859375 -17.828125 10.625 -17.410156 9.625 -16.578125 C 8.625 -15.742188 8.007812 -14.601562 7.78125 -13.15625 L 18.828125 -13.15625 C 18.597656 -14.570312 17.984375 -15.703125 16.984375 -16.546875 C 15.984375 -17.398438 14.765625 -17.828125 13.328125 -17.828125 Z M 13.328125 -17.828125 "/></g></g></g><g fill="#ffffff" fill-opacity="1"><g transform="translate(152.095866, 115.157322)"><g><path d="M 24.9375 -11.125 C 24.9375 -11.039062 24.894531 -10.457031 24.8125 -9.375 L 7.875 -9.375 C 8.175781 -7.976562 8.894531 -6.878906 10.03125 -6.078125 C 11.175781 -5.273438 12.59375 -4.875 14.28125 -4.875 C 15.445312 -4.875 16.476562 -5.046875 17.375 -5.390625 C 18.28125 -5.734375 19.125 -6.28125 19.90625 -7.03125 L 23.359375 -3.296875 C 21.253906 -0.878906 18.171875 0.328125 14.109375 0.328125 C 11.585938 0.328125 9.351562 -0.160156 7.40625 -1.140625 C 5.46875 -2.128906 3.96875 -3.5 2.90625 -5.25 C 1.851562 -7 1.328125 -8.984375 1.328125 -11.203125 C 1.328125 -13.390625 1.847656 -15.363281 2.890625 -17.125 C 3.929688 -18.894531 5.359375 -20.269531 7.171875 -21.25 C 8.992188 -22.238281 11.03125 -22.734375 13.28125 -22.734375 C 15.476562 -22.734375 17.460938 -22.257812 19.234375 -21.3125 C 21.015625 -20.375 22.410156 -19.019531 23.421875 -17.25 C 24.429688 -15.488281 24.9375 -13.445312 24.9375 -11.125 Z M 13.328125 -17.828125 C 11.859375 -17.828125 10.625 -17.410156 9.625 -16.578125 C 8.625 -15.742188 8.007812 -14.601562 7.78125 -13.15625 L 18.828125 -13.15625 C 18.597656 -14.570312 17.984375 -15.703125 16.984375 -16.546875 C 15.984375 -17.398438 14.765625 -17.828125 13.328125 -17.828125 Z M 13.328125 -17.828125 "/></g></g></g><g fill="#ffffff" fill-opacity="1"><g transform="translate(175.953007, 115.157322)"><g><path d="M 9.203125 -19.453125 C 9.984375 -20.523438 11.03125 -21.335938 12.34375 -21.890625 C 13.664062 -22.453125 15.1875 -22.734375 16.90625 -22.734375 L 16.90625 -16.734375 C 16.1875 -16.796875 15.703125 -16.828125 15.453125 -16.828125 C 13.585938 -16.828125 12.128906 -16.304688 11.078125 -15.265625 C 10.023438 -14.222656 9.5 -12.660156 9.5 -10.578125 L 9.5 0 L 3 0 L 3 -22.40625 L 9.203125 -22.40625 Z M 9.203125 -19.453125 "/></g></g></g><g fill="#ffffff" fill-opacity="1"><g transform="translate(112.863211, 145.612955)"><g><path d="M 13.828125 0.328125 C 11.441406 0.328125 9.296875 -0.160156 7.390625 -1.140625 C 5.484375 -2.128906 3.992188 -3.5 2.921875 -5.25 C 1.859375 -7 1.328125 -8.984375 1.328125 -11.203125 C 1.328125 -13.421875 1.859375 -15.40625 2.921875 -17.15625 C 3.992188 -18.90625 5.484375 -20.269531 7.390625 -21.25 C 9.296875 -22.238281 11.441406 -22.734375 13.828125 -22.734375 C 16.179688 -22.734375 18.238281 -22.238281 20 -21.25 C 21.769531 -20.269531 23.054688 -18.863281 23.859375 -17.03125 L 18.828125 -14.328125 C 17.660156 -16.378906 15.976562 -17.40625 13.78125 -17.40625 C 12.09375 -17.40625 10.691406 -16.847656 9.578125 -15.734375 C 8.460938 -14.628906 7.90625 -13.117188 7.90625 -11.203125 C 7.90625 -9.285156 8.460938 -7.769531 9.578125 -6.65625 C 10.691406 -5.550781 12.09375 -5 13.78125 -5 C 16 -5 17.679688 -6.023438 18.828125 -8.078125 L 23.859375 -5.328125 C 23.054688 -3.554688 21.769531 -2.171875 20 -1.171875 C 18.238281 -0.171875 16.179688 0.328125 13.828125 0.328125 Z M 13.828125 0.328125 "/></g></g></g><g fill="#ffffff" fill-opacity="1"><g transform="translate(135.054885, 145.612955)"><g><path d="M 13.65625 0.328125 C 11.300781 0.328125 9.1875 -0.160156 7.3125 -1.140625 C 5.4375 -2.128906 3.96875 -3.5 2.90625 -5.25 C 1.851562 -7 1.328125 -8.984375 1.328125 -11.203125 C 1.328125 -13.421875 1.851562 -15.40625 2.90625 -17.15625 C 3.96875 -18.90625 5.4375 -20.269531 7.3125 -21.25 C 9.1875 -22.238281 11.300781 -22.734375 13.65625 -22.734375 C 16.019531 -22.734375 18.128906 -22.238281 19.984375 -21.25 C 21.847656 -20.269531 23.304688 -18.90625 24.359375 -17.15625 C 25.410156 -15.40625 25.9375 -13.421875 25.9375 -11.203125 C 25.9375 -8.984375 25.410156 -7 24.359375 -5.25 C 23.304688 -3.5 21.847656 -2.128906 19.984375 -1.140625 C 18.128906 -0.160156 16.019531 0.328125 13.65625 0.328125 Z M 13.65625 -5 C 15.320312 -5 16.6875 -5.5625 17.75 -6.6875 C 18.820312 -7.8125 19.359375 -9.316406 19.359375 -11.203125 C 19.359375 -13.085938 18.820312 -14.59375 17.75 -15.71875 C 16.6875 -16.84375 15.320312 -17.40625 13.65625 -17.40625 C 11.988281 -17.40625 10.613281 -16.84375 9.53125 -15.71875 C 8.445312 -14.59375 7.90625 -13.085938 7.90625 -11.203125 C 7.90625 -9.316406 8.445312 -7.8125 9.53125 -6.6875 C 10.613281 -5.5625 11.988281 -5 13.65625 -5 Z M 13.65625 -5 "/></g></g></g><g fill="#ffffff" fill-opacity="1"><g transform="translate(159.911303, 145.612955)"><g><path d="M 25.8125 -30.890625 L 25.8125 0 L 19.609375 0 L 19.609375 -2.578125 C 18.003906 -0.640625 15.671875 0.328125 12.609375 0.328125 C 10.503906 0.328125 8.597656 -0.140625 6.890625 -1.078125 C 5.179688 -2.023438 3.84375 -3.375 2.875 -5.125 C 1.90625 -6.875 1.421875 -8.898438 1.421875 -11.203125 C 1.421875 -13.503906 1.90625 -15.53125 2.875 -17.28125 C 3.84375 -19.03125 5.179688 -20.375 6.890625 -21.3125 C 8.597656 -22.257812 10.503906 -22.734375 12.609375 -22.734375 C 15.472656 -22.734375 17.710938 -21.832031 19.328125 -20.03125 L 19.328125 -30.890625 Z M 13.734375 -5 C 15.378906 -5 16.742188 -5.5625 17.828125 -6.6875 C 18.910156 -7.8125 19.453125 -9.316406 19.453125 -11.203125 C 19.453125 -13.085938 18.910156 -14.59375 17.828125 -15.71875 C 16.742188 -16.84375 15.378906 -17.40625 13.734375 -17.40625 C 12.078125 -17.40625 10.707031 -16.84375 9.625 -15.71875 C 8.539062 -14.59375 8 -13.085938 8 -11.203125 C 8 -9.316406 8.539062 -7.8125 9.625 -6.6875 C 10.707031 -5.5625 12.078125 -5 13.734375 -5 Z M 13.734375 -5 "/></g></g></g><g fill="#ffffff" fill-opacity="1"><g transform="translate(186.308282, 145.612955)"><g><path d="M 24.9375 -11.125 C 24.9375 -11.039062 24.894531 -10.457031 24.8125 -9.375 L 7.875 -9.375 C 8.175781 -7.976562 8.894531 -6.878906 10.03125 -6.078125 C 11.175781 -5.273438 12.59375 -4.875 14.28125 -4.875 C 15.445312 -4.875 16.476562 -5.046875 17.375 -5.390625 C 18.28125 -5.734375 19.125 -6.28125 19.90625 -7.03125 L 23.359375 -3.296875 C 21.253906 -0.878906 18.171875 0.328125 14.109375 0.328125 C 11.585938 0.328125 9.351562 -0.160156 7.40625 -1.140625 C 5.46875 -2.128906 3.96875 -3.5 2.90625 -5.25 C 1.851562 -7 1.328125 -8.984375 1.328125 -11.203125 C 1.328125 -13.390625 1.847656 -15.363281 2.890625 -17.125 C 3.929688 -18.894531 5.359375 -20.269531 7.171875 -21.25 C 8.992188 -22.238281 11.03125 -22.734375 13.28125 -22.734375 C 15.476562 -22.734375 17.460938 -22.257812 19.234375 -21.3125 C 21.015625 -20.375 22.410156 -19.019531 23.421875 -17.25 C 24.429688 -15.488281 24.9375 -13.445312 24.9375 -11.125 Z M 13.328125 -17.828125 C 11.859375 -17.828125 10.625 -17.410156 9.625 -16.578125 C 8.625 -15.742188 8.007812 -14.601562 7.78125 -13.15625 L 18.828125 -13.15625 C 18.597656 -14.570312 17.984375 -15.703125 16.984375 -16.546875 C 15.984375 -17.398438 14.765625 -17.828125 13.328125 -17.828125 Z M 13.328125 -17.828125 "/></g></g></g><g fill="#ffffff" fill-opacity="1"><g transform="translate(210.165422, 145.612955)"><g><path d="M 25.8125 -30.890625 L 25.8125 0 L 19.609375 0 L 19.609375 -2.578125 C 18.003906 -0.640625 15.671875 0.328125 12.609375 0.328125 C 10.503906 0.328125 8.597656 -0.140625 6.890625 -1.078125 C 5.179688 -2.023438 3.84375 -3.375 2.875 -5.125 C 1.90625 -6.875 1.421875 -8.898438 1.421875 -11.203125 C 1.421875 -13.503906 1.90625 -15.53125 2.875 -17.28125 C 3.84375 -19.03125 5.179688 -20.375 6.890625 -21.3125 C 8.597656 -22.257812 10.503906 -22.734375 12.609375 -22.734375 C 15.472656 -22.734375 17.710938 -21.832031 19.328125 -20.03125 L 19.328125 -30.890625 Z M 13.734375 -5 C 15.378906 -5 16.742188 -5.5625 17.828125 -6.6875 C 18.910156 -7.8125 19.453125 -9.316406 19.453125 -11.203125 C 19.453125 -13.085938 18.910156 -14.59375 17.828125 -15.71875 C 16.742188 -16.84375 15.378906 -17.40625 13.734375 -17.40625 C 12.078125 -17.40625 10.707031 -16.84375 9.625 -15.71875 C 8.539062 -14.59375 8 -13.085938 8 -11.203125 C 8 -9.316406 8.539062 -7.8125 9.625 -6.6875 C 10.707031 -5.5625 12.078125 -5 13.734375 -5 Z M 13.734375 -5 "/></g></g></g></svg>