<svg xmlns="http://www.w3.org/2000/svg" xmlns:xlink="http://www.w3.org/1999/xlink" width="500" zoomAndPan="magnify" viewBox="0 0 375 374.999991" height="500" preserveAspectRatio="xMidYMid meet" version="1.0"><defs><g/></defs><g fill="#000000" fill-opacity="1"><g transform="translate(0.0000045, 164.273992)"><g><path d="M 58.125 -50.59375 L 58.125 18.25 L 43.453125 18.25 L 43.453125 -5.359375 C 39.816406 -1.285156 34.769531 0.75 28.3125 0.75 C 23.539062 0.75 19.226562 -0.3125 15.375 -2.4375 C 11.519531 -4.570312 8.492188 -7.613281 6.296875 -11.5625 C 4.109375 -15.519531 3.015625 -20.097656 3.015625 -25.296875 C 3.015625 -30.503906 4.109375 -35.082031 6.296875 -39.03125 C 8.492188 -42.976562 11.519531 -46.015625 15.375 -48.140625 C 19.226562 -50.273438 23.539062 -51.34375 28.3125 -51.34375 C 35.207031 -51.34375 40.472656 -49.148438 44.109375 -44.765625 L 44.109375 -50.59375 Z M 30.84375 -11.28125 C 34.539062 -11.28125 37.613281 -12.550781 40.0625 -15.09375 C 42.507812 -17.632812 43.734375 -21.035156 43.734375 -25.296875 C 43.734375 -29.554688 42.507812 -32.957031 40.0625 -35.5 C 37.613281 -38.039062 34.539062 -39.3125 30.84375 -39.3125 C 27.082031 -39.3125 23.976562 -38.039062 21.53125 -35.5 C 19.09375 -32.957031 17.875 -29.554688 17.875 -25.296875 C 17.875 -21.035156 19.09375 -17.632812 21.53125 -15.09375 C 23.976562 -12.550781 27.082031 -11.28125 30.84375 -11.28125 Z M 30.84375 -11.28125 "/></g></g></g><g fill="#000000" fill-opacity="1"><g transform="translate(59.434702, 164.273992)"><g><path d="M 57.75 -50.59375 L 57.75 0 L 43.828125 0 L 43.828125 -6.015625 C 41.878906 -3.828125 39.554688 -2.148438 36.859375 -0.984375 C 34.171875 0.171875 31.257812 0.75 28.125 0.75 C 21.476562 0.75 16.207031 -1.160156 12.3125 -4.984375 C 8.425781 -8.804688 6.484375 -14.476562 6.484375 -22 L 6.484375 -50.59375 L 21.15625 -50.59375 L 21.15625 -24.171875 C 21.15625 -16.015625 24.570312 -11.9375 31.40625 -11.9375 C 34.914062 -11.9375 37.738281 -13.082031 39.875 -15.375 C 42.007812 -17.664062 43.078125 -21.066406 43.078125 -25.578125 L 43.078125 -50.59375 Z M 57.75 -50.59375 "/></g></g></g><g fill="#000000" fill-opacity="1"><g transform="translate(118.587269, 164.273992)"><g><path d="M 56.328125 -25.109375 C 56.328125 -24.921875 56.234375 -23.601562 56.046875 -21.15625 L 17.78125 -21.15625 C 18.46875 -18.019531 20.09375 -15.539062 22.65625 -13.71875 C 25.226562 -11.90625 28.429688 -11 32.265625 -11 C 34.890625 -11 37.222656 -11.390625 39.265625 -12.171875 C 41.304688 -12.960938 43.203125 -14.203125 44.953125 -15.890625 L 52.765625 -7.4375 C 47.992188 -1.976562 41.03125 0.75 31.875 0.75 C 26.175781 0.75 21.128906 -0.359375 16.734375 -2.578125 C 12.347656 -4.804688 8.960938 -7.894531 6.578125 -11.84375 C 4.203125 -15.800781 3.015625 -20.285156 3.015625 -25.296875 C 3.015625 -30.253906 4.1875 -34.722656 6.53125 -38.703125 C 8.882812 -42.679688 12.113281 -45.78125 16.21875 -48 C 20.332031 -50.226562 24.925781 -51.34375 30 -51.34375 C 34.957031 -51.34375 39.441406 -50.273438 43.453125 -48.140625 C 47.460938 -46.015625 50.609375 -42.960938 52.890625 -38.984375 C 55.179688 -35.003906 56.328125 -30.378906 56.328125 -25.109375 Z M 30.09375 -40.25 C 26.769531 -40.25 23.976562 -39.304688 21.71875 -37.421875 C 19.46875 -35.546875 18.09375 -32.976562 17.59375 -29.71875 L 42.515625 -29.71875 C 42.003906 -32.914062 40.617188 -35.46875 38.359375 -37.375 C 36.109375 -39.289062 33.351562 -40.25 30.09375 -40.25 Z M 30.09375 -40.25 "/></g></g></g><g fill="#000000" fill-opacity="1"><g transform="translate(172.473442, 164.273992)"><g><path d="M 56.328125 -25.109375 C 56.328125 -24.921875 56.234375 -23.601562 56.046875 -21.15625 L 17.78125 -21.15625 C 18.46875 -18.019531 20.09375 -15.539062 22.65625 -13.71875 C 25.226562 -11.90625 28.429688 -11 32.265625 -11 C 34.890625 -11 37.222656 -11.390625 39.265625 -12.171875 C 41.304688 -12.960938 43.203125 -14.203125 44.953125 -15.890625 L 52.765625 -7.4375 C 47.992188 -1.976562 41.03125 0.75 31.875 0.75 C 26.175781 0.75 21.128906 -0.359375 16.734375 -2.578125 C 12.347656 -4.804688 8.960938 -7.894531 6.578125 -11.84375 C 4.203125 -15.800781 3.015625 -20.285156 3.015625 -25.296875 C 3.015625 -30.253906 4.1875 -34.722656 6.53125 -38.703125 C 8.882812 -42.679688 12.113281 -45.78125 16.21875 -48 C 20.332031 -50.226562 24.925781 -51.34375 30 -51.34375 C 34.957031 -51.34375 39.441406 -50.273438 43.453125 -48.140625 C 47.460938 -46.015625 50.609375 -42.960938 52.890625 -38.984375 C 55.179688 -35.003906 56.328125 -30.378906 56.328125 -25.109375 Z M 30.09375 -40.25 C 26.769531 -40.25 23.976562 -39.304688 21.71875 -37.421875 C 19.46875 -35.546875 18.09375 -32.976562 17.59375 -29.71875 L 42.515625 -29.71875 C 42.003906 -32.914062 40.617188 -35.46875 38.359375 -37.375 C 36.109375 -39.289062 33.351562 -40.25 30.09375 -40.25 Z M 30.09375 -40.25 "/></g></g></g><g fill="#000000" fill-opacity="1"><g transform="translate(226.359616, 164.273992)"><g><path d="M 20.78125 -43.921875 C 22.539062 -46.367188 24.910156 -48.21875 27.890625 -49.46875 C 30.867188 -50.71875 34.300781 -51.34375 38.1875 -51.34375 L 38.1875 -37.8125 C 36.550781 -37.9375 35.453125 -38 34.890625 -38 C 30.691406 -38 27.398438 -36.820312 25.015625 -34.46875 C 22.628906 -32.113281 21.4375 -28.585938 21.4375 -23.890625 L 21.4375 0 L 6.765625 0 L 6.765625 -50.59375 L 20.78125 -50.59375 Z M 20.78125 -43.921875 "/></g></g></g><g fill="#000000" fill-opacity="1"><g transform="translate(82.816053, 233.062953)"><g><path d="M 31.21875 0.75 C 25.832031 0.75 20.988281 -0.359375 16.6875 -2.578125 C 12.394531 -4.804688 9.039062 -7.894531 6.625 -11.84375 C 4.21875 -15.800781 3.015625 -20.285156 3.015625 -25.296875 C 3.015625 -30.316406 4.21875 -34.800781 6.625 -38.75 C 9.039062 -42.695312 12.394531 -45.78125 16.6875 -48 C 20.988281 -50.226562 25.832031 -51.34375 31.21875 -51.34375 C 36.550781 -51.34375 41.207031 -50.226562 45.1875 -48 C 49.164062 -45.78125 52.066406 -42.601562 53.890625 -38.46875 L 42.515625 -32.359375 C 39.878906 -36.992188 36.082031 -39.3125 31.125 -39.3125 C 27.300781 -39.3125 24.132812 -38.054688 21.625 -35.546875 C 19.125 -33.035156 17.875 -29.617188 17.875 -25.296875 C 17.875 -20.972656 19.125 -17.554688 21.625 -15.046875 C 24.132812 -12.535156 27.300781 -11.28125 31.125 -11.28125 C 36.144531 -11.28125 39.941406 -13.601562 42.515625 -18.25 L 53.890625 -12.03125 C 52.066406 -8.019531 49.164062 -4.882812 45.1875 -2.625 C 41.207031 -0.375 36.550781 0.75 31.21875 0.75 Z M 31.21875 0.75 "/></g></g></g><g fill="#000000" fill-opacity="1"><g transform="translate(132.940502, 233.062953)"><g><path d="M 30.84375 0.75 C 25.519531 0.75 20.738281 -0.359375 16.5 -2.578125 C 12.269531 -4.804688 8.960938 -7.894531 6.578125 -11.84375 C 4.203125 -15.800781 3.015625 -20.285156 3.015625 -25.296875 C 3.015625 -30.316406 4.203125 -34.800781 6.578125 -38.75 C 8.960938 -42.695312 12.269531 -45.78125 16.5 -48 C 20.738281 -50.226562 25.519531 -51.34375 30.84375 -51.34375 C 36.175781 -51.34375 40.941406 -50.226562 45.140625 -48 C 49.335938 -45.78125 52.628906 -42.695312 55.015625 -38.75 C 57.398438 -34.800781 58.59375 -30.316406 58.59375 -25.296875 C 58.59375 -20.285156 57.398438 -15.800781 55.015625 -11.84375 C 52.628906 -7.894531 49.335938 -4.804688 45.140625 -2.578125 C 40.941406 -0.359375 36.175781 0.75 30.84375 0.75 Z M 30.84375 -11.28125 C 34.601562 -11.28125 37.691406 -12.550781 40.109375 -15.09375 C 42.523438 -17.632812 43.734375 -21.035156 43.734375 -25.296875 C 43.734375 -29.554688 42.523438 -32.957031 40.109375 -35.5 C 37.691406 -38.039062 34.601562 -39.3125 30.84375 -39.3125 C 27.082031 -39.3125 23.976562 -38.039062 21.53125 -35.5 C 19.09375 -32.957031 17.875 -29.554688 17.875 -25.296875 C 17.875 -21.035156 19.09375 -17.632812 21.53125 -15.09375 C 23.976562 -12.550781 27.082031 -11.28125 30.84375 -11.28125 Z M 30.84375 -11.28125 "/></g></g></g><g fill="#000000" fill-opacity="1"><g transform="translate(189.083696, 233.062953)"><g><path d="M 58.3125 -69.78125 L 58.3125 0 L 44.296875 0 L 44.296875 -5.828125 C 40.660156 -1.441406 35.394531 0.75 28.5 0.75 C 23.726562 0.75 19.414062 -0.3125 15.5625 -2.4375 C 11.707031 -4.570312 8.679688 -7.613281 6.484375 -11.5625 C 4.296875 -15.519531 3.203125 -20.097656 3.203125 -25.296875 C 3.203125 -30.503906 4.296875 -35.082031 6.484375 -39.03125 C 8.679688 -42.976562 11.707031 -46.015625 15.5625 -48.140625 C 19.414062 -50.273438 23.726562 -51.34375 28.5 -51.34375 C 34.957031 -51.34375 40.003906 -49.304688 43.640625 -45.234375 L 43.640625 -69.78125 Z M 31.03125 -11.28125 C 34.726562 -11.28125 37.800781 -12.550781 40.25 -15.09375 C 42.695312 -17.632812 43.921875 -21.035156 43.921875 -25.296875 C 43.921875 -29.554688 42.695312 -32.957031 40.25 -35.5 C 37.800781 -38.039062 34.726562 -39.3125 31.03125 -39.3125 C 27.269531 -39.3125 24.164062 -38.039062 21.71875 -35.5 C 19.28125 -32.957031 18.0625 -29.554688 18.0625 -25.296875 C 18.0625 -21.035156 19.28125 -17.632812 21.71875 -15.09375 C 24.164062 -12.550781 27.269531 -11.28125 31.03125 -11.28125 Z M 31.03125 -11.28125 "/></g></g></g><g fill="#000000" fill-opacity="1"><g transform="translate(248.706483, 233.062953)"><g><path d="M 56.328125 -25.109375 C 56.328125 -24.921875 56.234375 -23.601562 56.046875 -21.15625 L 17.78125 -21.15625 C 18.46875 -18.019531 20.09375 -15.539062 22.65625 -13.71875 C 25.226562 -11.90625 28.429688 -11 32.265625 -11 C 34.890625 -11 37.222656 -11.390625 39.265625 -12.171875 C 41.304688 -12.960938 43.203125 -14.203125 44.953125 -15.890625 L 52.765625 -7.4375 C 47.992188 -1.976562 41.03125 0.75 31.875 0.75 C 26.175781 0.75 21.128906 -0.359375 16.734375 -2.578125 C 12.347656 -4.804688 8.960938 -7.894531 6.578125 -11.84375 C 4.203125 -15.800781 3.015625 -20.285156 3.015625 -25.296875 C 3.015625 -30.253906 4.1875 -34.722656 6.53125 -38.703125 C 8.882812 -42.679688 12.113281 -45.78125 16.21875 -48 C 20.332031 -50.226562 24.925781 -51.34375 30 -51.34375 C 34.957031 -51.34375 39.441406 -50.273438 43.453125 -48.140625 C 47.460938 -46.015625 50.609375 -42.960938 52.890625 -38.984375 C 55.179688 -35.003906 56.328125 -30.378906 56.328125 -25.109375 Z M 30.09375 -40.25 C 26.769531 -40.25 23.976562 -39.304688 21.71875 -37.421875 C 19.46875 -35.546875 18.09375 -32.976562 17.59375 -29.71875 L 42.515625 -29.71875 C 42.003906 -32.914062 40.617188 -35.46875 38.359375 -37.375 C 36.109375 -39.289062 33.351562 -40.25 30.09375 -40.25 Z M 30.09375 -40.25 "/></g></g></g><g fill="#000000" fill-opacity="1"><g transform="translate(302.592656, 233.062953)"><g><path d="M 58.3125 -69.78125 L 58.3125 0 L 44.296875 0 L 44.296875 -5.828125 C 40.660156 -1.441406 35.394531 0.75 28.5 0.75 C 23.726562 0.75 19.414062 -0.3125 15.5625 -2.4375 C 11.707031 -4.570312 8.679688 -7.613281 6.484375 -11.5625 C 4.296875 -15.519531 3.203125 -20.097656 3.203125 -25.296875 C 3.203125 -30.503906 4.296875 -35.082031 6.484375 -39.03125 C 8.679688 -42.976562 11.707031 -46.015625 15.5625 -48.140625 C 19.414062 -50.273438 23.726562 -51.34375 28.5 -51.34375 C 34.957031 -51.34375 40.003906 -49.304688 43.640625 -45.234375 L 43.640625 -69.78125 Z M 31.03125 -11.28125 C 34.726562 -11.28125 37.800781 -12.550781 40.25 -15.09375 C 42.695312 -17.632812 43.921875 -21.035156 43.921875 -25.296875 C 43.921875 -29.554688 42.695312 -32.957031 40.25 -35.5 C 37.800781 -38.039062 34.726562 -39.3125 31.03125 -39.3125 C 27.269531 -39.3125 24.164062 -38.039062 21.71875 -35.5 C 19.28125 -32.957031 18.0625 -29.554688 18.0625 -25.296875 C 18.0625 -21.035156 19.28125 -17.632812 21.71875 -15.09375 C 24.164062 -12.550781 27.269531 -11.28125 31.03125 -11.28125 Z M 31.03125 -11.28125 "/></g></g></g></svg>